<?xml version="1.0" encoding="UTF-8"?>
<svg id="Layer_1" xmlns="http://www.w3.org/2000/svg" version="1.1" viewBox="0 0 301.9 347.1">
  <!-- Generator: Adobe Illustrator 30.1.0, SVG Export Plug-In . SVG Version: 2.1.1 Build 136)  -->
  <defs>
    <style>
      .st0, .st1, .st2, .st3, .st4, .st5, .st6, .st7 {
        fill: #231f20;
      }

      .st0, .st2, .st3, .st5 {
        font-family: Arial-ItalicMT, Arial;
        font-size: 7px;
        font-style: italic;
      }

      .st0, .st2, .st3, .st5, .st8, .st9 {
        isolation: isolate;
      }

      .st10 {
        fill: #919595;
      }

      .st10, .st11, .st1, .st12, .st13, .st6, .st9, .st14, .st15, .st7, .st16 {
        fill-rule: evenodd;
      }

      .st11, .st9, .st17 {
        fill: #fff;
      }

      .st1, .st12, .st18 {
        stroke-width: .4px;
      }

      .st1, .st12, .st18, .st19, .st20, .st21, .st7 {
        stroke: #231f20;
        stroke-miterlimit: 22.9;
      }

      .st2 {
        letter-spacing: 0em;
      }

      .st3 {
        letter-spacing: 0em;
      }

      .st12 {
        fill: #d1d3d4;
      }

      .st5 {
        letter-spacing: 0em;
      }

      .st13 {
        fill: #aaadae;
      }

      .st18, .st19, .st20, .st21 {
        fill: none;
      }

      .st19 {
        stroke-width: .7px;
      }

      .st20 {
        stroke-width: .6px;
      }

      .st21 {
        stroke-width: .5px;
      }

      .st9 {
        opacity: .3;
      }

      .st17 {
        stroke: #000;
        stroke-miterlimit: 10;
      }

      .st15 {
        fill: #3f554d;
      }

      .st7 {
        stroke-width: .1px;
      }

      .st16 {
        fill: #a7a9ac;
      }
    </style>
  </defs>
  <polygon class="st17" points="0 86.8 150.9 0 301.9 86.8 301.9 260.3 150.9 347.1 0 260.3 0 86.8"/>
  <g id="Layer_2">
    <g id="Layer_1-2">
      <path class="st6" d="M153.6,1.6l72.8,41.8h0s72.7,41.8,72.7,41.8l2.7,1.6v173.5l-2.7,1.6-72.7,41.8h0s-72.8,41.9-72.8,41.9l-2.7,1.6-2.7-1.6-72.8-41.8h0S2.7,261.9,2.7,261.9l-2.7-1.6V86.8l2.7-1.6,72.7-41.8h0S148.2,1.6,148.2,1.6l2.7-1.6,2.7,1.6Z"/>
      <path class="st11" d="M223.2,49L150.9,7.5l-72.3,41.5h0L6.3,90.5v166.1l72.3,41.5h0l72.3,41.5,72.3-41.5h0l72.3-41.5V90.5l-72.3-41.5h0Z"/>
      <path class="st6" d="M122.3,261.7c-.4,0-.9.1-1.3.3-1-.1-2-.1-3,0,0,0-10.4.5-10.8,12.3,0,3.3,1.4,6.5,3.8,8.8-.1.8-.1,1.7,0,2.5,0,0-.4,4.2,4,10.2,0,0-2.4,3.8-2.1,5.4,0,0,.2,1.1.5,1.3h0c3.6-1.6,7.1-3.5,10.4-5.7,6.8-4.5,17.4-7,26.4-7s20.6,3.7,24.1,6c4.4,2.7,9.2,5,14.1,6.7.3-.4.9-1.7-.3-3.5l-1.2-2.2c2.6-3.5,4.2-7.6,4.8-11.9,0-.8,0-1.6,0-2.4h0c2.1-2.4,3.2-5.4,3-8.5-.1-5.5-3.6-11.4-11.6-12.1-.8-.1-1.6-.1-2.3,0-.5-.2-1-.2-1.6-.2,0,0-3.9-.2-8.4,5.1-2.8,2.7-7.3,6.4-11.5,6.6-2.8,0-6.1-1.8-8.7-1.8-3.1,0-5.5,1.8-8.7,1.7-4.9-.5-8.3-4.3-10.8-6.6,0,0-5.1-5.2-9-5.1h0Z"/>
      <path class="st15" d="M113.3,302.6c-.1.3-.2.5-.2.8,0,1.3.6,2.5,1.7,3.3,1.3,1.5,6.1,5.4,11.6,7.7,8.8,3.6,19,6.8,22.5,6.6,1.4,1.3,3.5,1.3,5,.1,0,0,11.2-1,25.7-9.3,0,0,8.4-3.7,9-7.7,0-.4,0-.7-.1-1,0-.1,0-.2-.2-.3,0,0,0-.1.1-.2-4.9-1.7-9.7-4-14.1-6.7-3.6-2.3-15.1-6-24.1-6s-19.7,2.5-26.4,7c-3.3,2.2-6.9,4.2-10.5,5.9h0Z"/>
      <path class="st6" d="M100.1,87.5c3.6,0,5.3,1.2,5.6,4.3.8,2.1.6,41.8.3,43.8-.3,3.9-1.8,4.8-5.8,5.4-3.2.4-6.5.7-9.8.7v-54.2h9.7ZM90.5,195.2v-43.1h10c2.1.6,3.2.7,4.5,2.4,2.9,3.9,1.8,14.9,1.8,20.9v29.9h16.3c-3.5-7.3-2.6-21.6-2.6-32.5s2.5-23.3-9.1-26c4.1-5.5,7.8-7.7,7.8-28.3s2.2-33.1-6.8-38.6c-3.1-1.7-6.6-2.7-10.2-2.8-8-.6-18.5,0-26.8,0,.5,6.2,1.3,1.5,1.3,13s.5,104.6-.4,109c-.6,2.9-1,3.9-1.6,6.2h17.6c-.7-2.9-2-6.7-2-10.2h0ZM142.3,165.7v-82.3c.3-7.6-2-20.2,9.2-19.5,5.9,0,7.2,5.8,7.2,11.7,0,11,1,109.4-1.2,115.6-1.8,5.1-11.6,5-13.6.3-1.5-5-1.8-10.9-1.5-16.7v-9.1h0ZM147.3,53.5c-7.5.7-14.5,4.3-16.8,11.6-.8,3-1.2,6.1-1.2,9.2v110.3c0,18.6,10.3,20.8,24.1,20.8h.1c7.3,0,14-4.1,16.3-9.1,4.2-9,2.6-99.5,2.6-112.2s-.4-17.5-3-22.3c-2.5-4.5-9.1-7.5-16.2-8.2h-5.9ZM213.9,196.2l.8-2.2.7,1.5v7.8c0,0,11,0,11,0-3.2-13.5-2-35.1-2-49.4s1.8-13.5,2-15.6c-2.6,0-19.7-.3-20.8,0-1.9.6-1.4,1.3-1.4,3.8,0,7.9-.5,7.6,2.1,7.4,1.9-.2,3.2-.2,5.1-.2v22.8c0,7.9.8,16.3-4.6,18.8-2.7,1.2-6.6.5-8.3-1.4-1.9-2.1-2.1-5.8-2.1-9.6v-82.3c0-10.8,6.8-11.9,12-9.3,5,2.5,2.8,14.2,2.4,19.7h15.7c-4.6-9.5,6.1-29.9-20.9-31.2h-5.7c-20.7,1.1-17.1,24.7-17.1,40.3s0,51.3,0,70.6c0,10.7,2.2,15.4,11.5,17.2,1,.2,2.1.3,3.2.4h1.5c2.6-.1,5.2-.7,7.6-1.7,3.4-1.3,6.2-4,7.5-7.4h0ZM233.8,127.7c0,16-.9,17.9,8.2,30.1l4.7,5.7c10,10.5,12,10.8,11.9,19.1s-.8,12.4-7.2,12.4-5.2-17.9-5.2-23.4h-12.4c0,21.6-2.9,33.8,19.6,33.8,19.7,0,17-17.6,17.6-23.4,0-3-.5-5.9-1.6-8.6-1.4-4.1-6.7-11.9-9.7-15-8.8-9-13.6-14.1-13.6-28.1,0-21.6,10.5-14,11.1-13,3,4.4,2.7,17.9,1.3,20.8h13c0-3.4-.7-4.4-.6-11.7,0-5.2.2-7.6-1-12-3.9-12.8-26.1-10.9-32.1-4.2-3.2,3.6-4.1,10.6-4.1,17.3h0ZM66.7,149.5c2.4.3.6.3,1.3-.6v-9.7c-.8-1,.2-.3-1.3-.5l-15,.5v-23.8c6.3,0,13.4,0,17.6,2v-12.4h-32.6c2.9,12.2,2,12.9,2,26.6l-.7,67.2c-.2,2.6-1.1,3.9-1.3,6.5h17c-2.8-12.1-2-12.2-2-25.4v-30.5h15Z"/>
      <path class="st20" d="M141.6,243.4h18.5"/>
      <path class="st19" d="M122.3,261.7s-4.2.1-7.4,5c0,0-4.7,14.3-3.9,18.9,0,0,0,5.1,4.5,11.1,0,0-2.9,2.9-2.6,4.5,0,0,.2,1.2.5,1.3-3.7,6.2,23.6,17.7,35.3,18.7,1.3,1.3,4.3,1.2,5.3-.1,12-.9,39-14.5,34.5-18.4,0,0,1.4-1.4-.2-3.7l-1.2-2.1c2.6-3.5,4.2-7.6,4.8-11.9.3-6.6-1.6-13.2-5.4-18.6,0,0-3.7-5-7-4.6,0,0-3.9-.2-8.4,5.1-2.8,2.7-7.3,6.4-11.5,6.6-2.8,0-6.1-1.8-8.7-1.8-3.1,0-5.5,1.8-8.7,1.7-4.9-.5-8.3-4.3-10.8-6.6,0,0-5.1-5.2-9-5.1h0Z"/>
      <path class="st21" d="M113.4,302.5s3.7-1.2,10.5-5.7,17.4-7,26.4-7,20.6,3.7,24.1,6,10.1,6,14.2,6.8"/>
      <path class="st12" d="M118,262s-10.4.5-10.8,12.3c.1,4.2,2.3,8.1,5.8,10.5,0,0,.5.4,1.7-.2,0,0,11.9-2.5,12-13.9,0,0,.7-10-8.7-8.6h0Z"/>
      <path class="st16" d="M113.1,283.9c1.3,0,2.6-.6,3.5-1.5,1.8-1.6,4.9-7.5,4.4-11.4s-1.5-7.8-5.6-7.3c-3,.8-6.2,7.8-4.5,10,0,0,.2.3-.8.4-3,0-1.3-8.4,3.2-10.5,1.7-1.2,3.8-1.8,5.9-1.7,5.5-.1,7.5,4.5,7.5,8.8,0,3.5-1.4,6.9-3.8,9.4-4.9,4.9-9.8,3.9-9.8,3.9Z"/>
      <path class="st7" d="M113.2,265.5s1,1.5,1.2,5.4c0,2.5-.4,5-1.4,7.2-.2.4-2.6-3-2.5-6.6s2.4-6,2.7-6h0Z"/>
      <path class="st9" d="M111.6,271.8c2.5.5,4.9,1.2,7.3,2,0,0,2-9.4-2.6-9.7s-4.9,6.5-4.7,7.7Z"/>
      <path class="st6" d="M117.6,262.1c7.9-1,10.2,11.2,5.5,17.5,5.5-5.1,5.8-19.1-5.5-17.5ZM109.9,281.6s2.7,3.1,5.2,2.6c-.6.5-1.4.7-2.2.5-1.2-.5-2.6-2.5-3-3.1Z"/>
      <path class="st12" d="M183.3,261.9s-8.5-1.8-8.3,9.9c0,0-.2,11,14.1,13.1,0,0,1.2.2,2.7-2.5,2.1-2.3,3.2-5.3,3-8.4-.1-5.5-3.6-11.4-11.6-12.1h0Z"/>
      <path class="st16" d="M187,284.4c-5.1-3.9-7.9-10.1-7.4-16.5,0-7,11.5-2.9,13.7,2.5,0,0,.1.6.7.3,0,0,.7-.5-.4-2.2s-3-5.7-10-6.6c-10.8-2.5-13.3,19.4,3.4,22.5h0Z"/>
      <path class="st1" d="M188.1,265.6s-1,1.1-.9,3.9c0,0-.1,7,1,8.7,1.8-1.6,2.9-3.8,3-6.3,0-2.5-1.1-4.8-3.1-6.4Z"/>
      <path class="st18" d="M183.3,261.9s-8.5-1.8-8.3,9.9c0,0-.2,11,14.1,13.1,0,0,1.2.2,2.7-2.5,2.1-2.3,3.2-5.3,3-8.4-.1-5.5-3.6-11.4-11.6-12.1h0Z"/>
      <path class="st9" d="M187.3,269.1s1.8,1.9,1.8,3.4h1.9s.4-2.3-2.1-4.5l-1.2.8-.4.3Z"/>
      <path class="st6" d="M185,262.3s-6.8-2-8.9,3.5c0,0-2.3,6.1.4,11-2.6-6.6.7-14.8,8.4-14.5ZM187,284.2s2.1,1.1,3.1.2c.7-.6,1.2-1.4,1.6-2.2-1.3,1.7-2.6,2-4.7,2h0ZM142.9,293.5c5.3,1.4,10.9,1.4,16.2,0-2.7-.6-5.5-.8-8.2-.8-2.7,0-5.4.2-8,.8Z"/>
      <path class="st18" d="M118,262s-10.4.5-10.8,12.3c.1,4.2,2.3,8.1,5.8,10.5,0,0,.5.4,1.7-.2,0,0,11.9-2.5,12-13.9,0,0,.7-10-8.7-8.6h0Z"/>
      <path class="st6" d="M88.3,294.1c2,1.1,7,.7,9.1.4,7.1-1,13.5-2.5,20-5.7,9.2-4.5,22.1-6.4,32-3.1.8.3,1.2,1.1.9,1.9-.2.7-1,1.2-1.8,1-9-2.2-21.6.7-29.7,5.1,0,0-.1,0-.2,0-7.5,2.9-24.8,7.4-31.9,2.9-.7-.5-.9-1.4-.4-2.1.4-.6,1.2-.8,1.9-.5h0Z"/>
      <path class="st11" d="M87.6,295.5s2.9,1.6,10,.5,13.7-2.5,20.5-5.9c8.9-4.4,21.4-6.1,30.8-3-8.4-2.1-21.3.1-30.8,5.3-7.3,2.9-24.1,7.1-30.5,3.1Z"/>
      <path class="st6" d="M152.5,285.7c9.9-3.2,22.7-1.4,32,3.1,6.5,3.2,12.9,4.6,20,5.7,2,.3,7.1.7,9.1-.4.7-.4,1.7-.1,2,.6.4.7.1,1.5-.5,2-7.1,4.5-24.5,0-31.9-2.9h-.2c-8.1-4.5-20.7-7.4-29.7-5.2-.8.2-1.6-.3-1.8-1.1-.2-.8.2-1.5,1-1.8h0Z"/>
      <path class="st11" d="M214.3,295.5s-2.9,1.6-10,.5-13.6-2.5-20.5-5.9c-8.9-4.4-21.4-6.1-30.9-3,8.4-2.1,21.3.1,30.8,5.3,7.3,2.9,24.1,7.1,30.5,3.1ZM148.9,286.6c.3,0,.5.2.5.5,0,0,0,0,0,0,0,.3-.2.6-.5.6-.3,0-.6-.2-.6-.5,0,0,0,0,0-.1,0-.3.2-.5.5-.5h0Z"/>
      <path class="st11" d="M152.9,286.6c.3,0,.5.2.5.5h0c0,.3-.2.5-.5.5-.3,0-.6-.2-.6-.5,0-.3.3-.5.6-.5Z"/>
      <path class="st14" d="M147.6,24.8h0c0,.1.1.5.1.5v.3c.2.5.2,16.8,0,17.3v.6c-.1,0-.1.1-.1.1v.2c-.1,0-.1.1-.1.1,0,.2,0,.2-.1.2.1,0,.2,0,.4,0h2.4c.1,0,.2,0,.3,0h-.1v-.3c-.2,0-.1,0-.1-.2h0c0-.1-.1-.5-.1-.5v-.2c-.2-.5,0-7,0-8.2h3c0,1.3.2,7.6-.1,8.3v.5c-.1,0-.1.2-.1.2,0,.2,0,.2-.1.2h0c0,.3,0,.3-.1.3.1,0,.3,0,.4,0h2.3c.1,0,.3,0,.4,0-.2,0-.1,0-.1-.2v-.2c-.2,0-.1,0-.1-.2v-.5c-.1,0-.1-.3-.1-.3-.2-.5-.2-16.8,0-17.2v-.6c.1,0,.1-.2.1-.2,0-.2,0-.2.1-.2h-2.6c-.1,0-.2-.2,0,.2h0c0,.1.1.5.1.5v.3c.2,2.3.2,4.6.1,6.9v.5h-2.9v-7.6l.2-.4v-.2c0-.3.2,0,0-.2h-2.4c-.2,0-.3-.2-.2.2ZM157.1,24.9v.2c.1,0,.1.1.1.1v.3c.1,0,.1.3.1.3.2.5.2,16.4,0,16.9v.6c-.1,0-.1.2-.1.2,0,.2,0,.2-.1.2v.2c0,.2,0,.2-.1.2.1,0,.2,0,.4,0h5.6v-2.1h-.2c0,.2,0,.1-.2.1h-.6c0,.1-2.3.1-2.3.1,0-.1,0,.1-.1-.3v-7.3c.8-.2,1.6-.1,2.4,0h.5c0,.1.2.1.2.1v-1.9c-.2-.2,0,0-.2,0h-.5c0,0-.3,0-.3,0-.7.2-1.4.2-2.1,0v-6.9c.8-.2,1.6-.2,2.4.1h.4c0,.1.2.1.2.1.2,0,.3.2.3-.8v-1h-5.4c-.5,0-.1,0-.3.1h0ZM139,26.5h.5c0-.1,1.9-.1,1.9-.1.1.3.2.7.1,1.1,0,2.9.2,15.1-.1,15.7v.6c-.1,0-.1,0-.1,0v.2c-.1,0-.1.2-.1.2h2.7c0,0,.2,0,.3,0-.2,0-.1,0-.1-.2h0c0-.1-.1-.3-.1-.3h0c0-.1-.2-.5-.2-.5v-.3c-.2-.6-.1-12.8-.1-15.6v-.6c0,0,0-.1,0-.2.1-.5,0,0,.1-.3h2.5c0,.1.2.1.2.1v-1.8h-7.4c0,0,0,1.8,0,1.8Z"/>
      <path class="st10" d="M150.1,42.9v-8.1h2.8v8.2c.3-.7.1-7,.1-8.4h-3c0,1.3-.1,7.8.1,8.3Z"/>
      <path class="st13" d="M155.6,44.1c0-.2,0-.2-.1-.2,0,.2,0,.2.1.2Z"/>
      <path class="st4" d="M80.5,231c0-1,.3-2.1.8-3,.5-1,1.2-1.9,2-2.7.8-.8,1.8-1.4,2.8-1.9,1-.5,2.1-.7,3.2-.7.6,0,1.2,0,1.7.3.6.3,1,.8,1.2,1.4l.7-1.4,4.1-.2c-1,1.8-2.1,3.5-3.1,5.2-1,1.7-2,3.4-3,5.1.9-.3,1.8-.7,2.6-1.3.8-.5,1.6-1.1,2.4-1.7.8-.6,1.5-1.3,2.2-2.1.7-.7,1.3-1.5,1.9-2.2l.2.2c-.6.8-1.3,1.6-2,2.3-.7.8-1.5,1.5-2.3,2.2-.8.7-1.6,1.3-2.5,1.8-.9.5-1.8.9-2.7,1.2-.7,1.5-1.7,2.9-2.7,4.1-1,1.2-2.1,2.2-3.3,3.1-1.2.8-2.4,1.5-3.8,1.9-1.3.4-2.6.7-4,.7-.8,0-1.6,0-2.4-.2-.7-.1-1.5-.4-2.1-.8-.6-.3-1.1-.8-1.4-1.4-.4-.6-.6-1.3-.6-2,0-.5.1-1,.3-1.4.2-.5.6-.9,1-1.2.5-.4,1.1-.6,1.7-.8.8-.2,1.7-.3,2.5-.3h1.9v.4h-.7c-.8,0-1.7.3-2.3.8-.6.7-1,1.6-.9,2.6,0,.5,0,1,.2,1.5.1.5.4.9.7,1.2.3.3.7.6,1.1.8.4.2.9.3,1.4.3,1.3,0,2.5-.5,3.5-1.3,1.2-1,2.2-2.1,3.1-3.4l4.5-6.6h0c-.7.7-1.5,1.4-2.4,1.8-.9.4-1.8.7-2.8.7-.8,0-1.6-.3-2.1-.9-.5-.6-.8-1.4-.8-2.2ZM84.3,231.4c0,.3,0,.7.2,1,.2.3.5.5.9.5.5,0,.9-.2,1.3-.4.5-.3.9-.7,1.3-1.1.5-.5.9-1,1.2-1.6.4-.6.7-1.2,1-1.8.3-.6.5-1.2.7-1.8.2-.5.3-1,.3-1.6,0-.4-.1-.8-.4-1.1-.3-.3-.6-.4-1-.4-.5,0-.9.2-1.3.4-.5.3-.9.7-1.3,1.1-.4.5-.8,1-1.2,1.5-.4.6-.7,1.2-1,1.8-.3.6-.5,1.2-.7,1.8-.1.6-.2,1.1-.2,1.7h0Z"/>
      <path class="st4" d="M104.7,222.8l-1,1.6c-1,1.4-1.7,2.6-2.3,3.5s-1,1.6-1.3,2.2c-.3.4-.5.9-.6,1.3,0,.3-.1.5-.2.8,0,.2,0,.5.2.6.1.2.4.3.6.2.6,0,1.1-.3,1.5-.7.7-.6,1.4-1.3,2-2,.9-1,1.6-2,2.4-3.1.9-1.3,1.7-2.7,2.5-4.2h4.3c-.2.2-.4.6-.8,1.1s-.7,1-1.1,1.6-.8,1.2-1.2,1.9-.8,1.3-1.2,1.9c-.3.5-.6,1.1-.8,1.7-.2.4-.3.8-.3,1.3,0,.2,0,.4.2.6.1.1.3.2.5.2.4,0,.8-.2,1.2-.4.5-.3,1-.7,1.4-1.1.5-.5,1.1-1,1.6-1.5.5-.6,1-1.1,1.5-1.7s.9-1.1,1.3-1.6.7-.9.9-1.2l.3.2c-.3.4-.7.9-1.2,1.4s-.9,1.1-1.4,1.7-1,1.2-1.6,1.8c-.5.6-1.1,1.1-1.7,1.6-.6.4-1.2.8-1.8,1.1-.6.3-1.2.4-1.8.4-.4,0-.8,0-1.1-.2-.3-.1-.6-.3-.8-.6-.2-.2-.4-.5-.4-.8-.1-.3-.2-.6-.2-.9,0-.2,0-.5,0-.7,0-.2.1-.4.2-.6h0c-.4.4-.9.9-1.3,1.4-.4.5-.9.9-1.4,1.2-.5.4-1,.6-1.5.9-.5.2-1,.3-1.6.3-.7,0-1.4-.2-1.8-.7-.4-.5-.6-1.2-.6-1.9,0-.5.1-.9.3-1.4.2-.5.4-1.1.7-1.6.3-.6.6-1.1.9-1.7s.7-1.1,1-1.6.6-1,.9-1.4.5-.7.6-1h4.3Z"/>
      <path class="st4" d="M129,226.1c-.5.7-1,1.3-1.5,2-.6.7-1.2,1.3-1.9,2-1.2,1.2-2.5,2.2-4,3-1.3.7-2.8,1-4.3,1-1.1,0-2.2-.3-3.1-.9-.7-.7-1.1-1.7-1.1-2.8,0-1.1.3-2.1.9-3,.6-.9,1.4-1.8,2.2-2.4.9-.7,1.9-1.3,2.9-1.7,1-.4,2-.6,3-.6.8,0,1.6.1,2.3.5.6.3,1,.9.9,1.5,0,.7-.4,1.4-1,1.8-.7.6-1.5,1-2.4,1.3-.9.4-1.8.7-2.8.9-.9.2-1.7.4-2.2.5,0,.2,0,.4,0,.6,0,.2,0,.4,0,.6,0,.4,0,.7.1,1.1,0,.3.2.6.4.9.2.3.4.5.7.6.4.2.8.3,1.2.2,1.1,0,2.1-.4,3-1,1.2-.8,2.2-1.6,3.2-2.6.6-.6,1.3-1.3,1.8-2,.5-.6,1-1.2,1.3-1.7l.3.2ZM122.5,223.9c0-.4-.2-.8-.6-.8,0,0-.1,0-.2,0-.5,0-1,.3-1.4.7-.5.5-1,1-1.4,1.6-.4.6-.8,1.2-1.1,1.9-.3.5-.5,1.1-.6,1.6,1.5-.3,2.8-1,3.9-2,.4-.4.8-.9,1-1.5.2-.5.4-1,.4-1.5h0Z"/>
      <path class="st4" d="M141,226.1c-.7,1.1-1.5,2.1-2.3,3.1-.8,1-1.7,1.8-2.7,2.6-1,.7-2.2,1.3-3.4,1.7-1.4.4-2.8.7-4.3.6-.6,0-1.1,0-1.7-.2-.5,0-.9-.3-1.3-.6-.4-.3-.7-.6-.9-1-.2-.4-.3-.9-.3-1.4,0-.7.2-1.3.7-1.7.4-.4,1-.6,1.6-.6.4,0,.8.1,1.1.4.3.3.5.7.4,1.1,0,.4-.1.7-.4,1-.2.2-.5.3-.9.3-.2,0-.4,0-.6,0-.1.2-.2.4-.2.6,0,.5.1,1.1.5,1.5.4.4.9.6,1.5.5.7,0,1.4-.2,1.9-.8.4-.5.6-1.1.6-1.8,0-.4-.1-.9-.4-1.2-.3-.4-.5-.8-.9-1.2-.3-.4-.6-.8-.8-1.2-.2-.4-.4-.8-.4-1.2,0-.5.1-.9.3-1.4.2-.5.6-.9,1-1.2.5-.4,1-.6,1.6-.8.7-.2,1.4-.3,2.1-.3,1,0,1.9.2,2.8.6.7.3,1.1,1,1.1,1.7,0,.5-.2,1-.6,1.4-.4.3-.8.5-1.3.5-.5,0-.9-.1-1.3-.4.1-.2.2-.4.3-.7,0-.3.1-.5.1-.8,0-.5-.1-.9-.4-1.3-.2-.4-.7-.6-1.1-.6-.4,0-.8.2-1.1.5-.3.4-.4.8-.4,1.2,0,.5.2,1,.4,1.4.3.4.6.9,1,1.3.4.4.7.9,1,1.3.3.5.5,1,.4,1.5,0,.6-.1,1.2-.5,1.7-.4.5-.8.9-1.4,1.2h0c.9-.2,1.7-.6,2.5-1.1.8-.5,1.6-1.1,2.4-1.8.8-.7,1.5-1.4,2.1-2.2.6-.8,1.2-1.5,1.7-2.4v.2Z"/>
      <path class="st4" d="M138.8,223.8l.2-.5h2.5l2.5-4.3h4.1c0-.1-2.7,4.3-2.7,4.3h4.1l-.2.5h-4.1c-.3.5-.7,1.1-1.1,1.9s-1,1.6-1.4,2.4-.9,1.6-1.2,2.4c-.3.6-.5,1.2-.5,1.9,0,.3,0,.5.3.7.2.2.5.3.8.2.6,0,1.1-.2,1.6-.4.6-.3,1.2-.7,1.7-1.1.6-.5,1.2-1,1.7-1.5.5-.6,1.1-1.1,1.5-1.7s.9-1.1,1.3-1.6.7-.9,1-1.2h.2c-.7.9-1.4,1.8-2.1,2.7-.7.9-1.6,1.8-2.4,2.7-.9.8-1.8,1.5-2.8,2-1,.5-2.1.8-3.3.8-.7,0-1.5-.2-2-.7-.5-.5-.7-1.2-.7-1.9,0-.4,0-.8.2-1.2.2-.5.3-1,.6-1.4.3-.6.6-1.2,1.1-2.1s1-1.8,1.8-3.1h-2.5ZM153.6,233.8c2-3.4,4-6.9,6-10.3s4-6.9,6-10.4l4.2-.3-5,8.3c-1.7,2.8-3.3,5.5-5,8h0c.4-.6,1-1.2,1.6-1.9.6-.7,1.3-1.4,2-2.1.7-.6,1.4-1.2,2.3-1.6.7-.4,1.5-.7,2.4-.7.6,0,1.2.2,1.7.5.5.4.8,1.1.7,1.7,0,.8-.2,1.5-.6,2.1-.4.7-.9,1.4-1.4,2.1-.5.7-1,1.3-1.4,1.9-.4.4-.6,1-.6,1.6,0,.2,0,.4.2.5.1.1.3.2.5.2.5,0,1-.2,1.4-.5.6-.4,1.1-.8,1.6-1.2.5-.5,1-1.1,1.6-1.6.5-.6,1-1.2,1.4-1.7s.8-1,1.1-1.5.6-.7.7-.9h.2c-.3.6-.7,1-1.1,1.6s-.9,1.1-1.3,1.7-1,1.2-1.5,1.8c-.5.6-1.1,1.1-1.6,1.6-.5.5-1.1.8-1.8,1.1-.6.3-1.2.4-1.8.4-.3,0-.7,0-1-.2-.3-.1-.5-.3-.8-.6-.2-.3-.3-.6-.4-.9,0-.3-.1-.7-.1-1,0-.7.2-1.5.6-2.1.4-.6.8-1.3,1.2-1.9.4-.6.9-1.1,1.2-1.6.3-.4.5-.9.6-1.4,0-.5-.2-.7-.7-.7-.5,0-.9.2-1.3.5-.6.4-1.1.8-1.6,1.3-.6.6-1.2,1.2-1.7,1.9-.6.7-1.1,1.4-1.7,2.1s-1,1.4-1.5,2.1c-.4.6-.8,1.3-1.1,1.9h-4.1Z"/>
      <path class="st4" d="M191.3,226.1l-.4.4c-.2.2-.4.4-.7.6-.3.2-.6.4-.9.5-.3.2-.7.2-1.1.2-.5,0-1-.1-1.4-.4-.4-.3-.8-.6-1.1-1h0c0,1-.2,2-.7,2.9-.5.9-1.1,1.8-1.9,2.4-.8.7-1.7,1.3-2.8,1.7-1.6.6-3.4.8-5.1.4-.6-.1-1.1-.3-1.6-.7-.5-.3-.9-.7-1.1-1.2-.3-.6-.5-1.2-.4-1.9,0-1.1.3-2.1.8-3.1.5-.9,1.2-1.7,2.1-2.3.9-.6,1.8-1.1,2.9-1.5,1-.3,2.1-.5,3.1-.5.7,0,1.4,0,2.1.4.5.2,1,.5,1.4.9.4.3.7.7,1,1.1.3.4.5.8.8,1.1.3.3.6.6.9.9.4.3.8.4,1.2.4.5,0,1-.1,1.4-.4.5-.3,1-.7,1.4-1.2l.2.2ZM181.3,223.1c-.5,0-1,.2-1.4.5-.5.4-1,.8-1.4,1.3-.5.6-.9,1.2-1.3,1.8-.4.6-.7,1.3-1,2-.3.6-.5,1.3-.7,2-.1.5-.2,1.1-.2,1.7,0,.4,0,.8.3,1.1.2.3.5.4.9.4.5,0,1-.2,1.4-.5.5-.4,1-.8,1.4-1.3.5-.6.9-1.2,1.3-1.8.4-.6.7-1.3,1-2,.3-.6.5-1.3.7-2,.2-.5.2-1.1.3-1.6,0-.4,0-.8-.3-1.1-.2-.3-.5-.4-.9-.4h0Z"/>
      <path class="st4" d="M195.7,222.8l-1,1.6c-.9,1.4-1.7,2.6-2.3,3.5s-1,1.6-1.3,2.2c-.3.4-.5.9-.6,1.3,0,.3-.1.5-.1.8,0,.2,0,.5.2.6.1.2.4.2.6.2.6,0,1.1-.3,1.5-.7.8-.6,1.4-1.3,2.1-2,.8-1,1.6-2,2.4-3.1.9-1.3,1.7-2.7,2.5-4.2h4.3c-.2.2-.4.6-.8,1.1s-.7,1-1.1,1.6-.8,1.2-1.2,1.9-.8,1.3-1.2,1.9c-.3.5-.6,1.1-.9,1.7-.2.4-.3.8-.3,1.3,0,.2,0,.4.2.6.1.1.3.2.5.2.4,0,.8-.2,1.2-.4.5-.3,1-.7,1.4-1.1.5-.4,1-.9,1.5-1.5s1-1.1,1.5-1.7.9-1.1,1.3-1.6l1-1.2.3.2c-.3.4-.7.9-1.1,1.4s-.9,1.1-1.4,1.7-1,1.2-1.6,1.8c-.5.6-1.1,1.1-1.7,1.6-.6.4-1.2.8-1.8,1.1-.6.3-1.2.4-1.8.4-.4,0-.8,0-1.1-.2-.3-.1-.6-.3-.8-.6-.2-.2-.4-.5-.4-.8,0-.3-.1-.6-.1-.9,0-.2,0-.5,0-.7,0-.2,0-.4.2-.6h0c-.4.4-.9.9-1.3,1.4-.4.5-.9.9-1.4,1.2-.5.4-1,.6-1.5.9-.5.2-1,.3-1.6.3-.7,0-1.4-.2-1.8-.7-.4-.5-.6-1.2-.6-1.9,0-.5.1-.9.3-1.4.2-.5.4-1.1.7-1.6.3-.6.6-1.1.9-1.7s.7-1.1,1-1.6.6-1,.9-1.4.5-.7.6-1h4.2Z"/>
      <path class="st4" d="M219.3,226.1c-.7,1.1-1.5,2.1-2.3,3.1-.8,1-1.7,1.8-2.8,2.6-1,.7-2.2,1.3-3.4,1.7-1.4.4-2.8.7-4.3.6-.6,0-1.1,0-1.7-.2-.5,0-.9-.3-1.4-.6-.4-.3-.7-.6-.9-1-.2-.4-.3-.9-.3-1.4,0-.7.2-1.3.7-1.7.4-.4,1-.6,1.6-.6.4,0,.8.1,1.1.4.3.3.5.7.4,1.1,0,.4-.1.7-.4,1-.2.2-.5.3-.9.3-.2,0-.4,0-.6,0-.1.2-.2.4-.1.6-.1,1,.6,1.9,1.6,2,.1,0,.3,0,.4,0,.7,0,1.4-.2,1.9-.8.4-.5.6-1.1.6-1.8,0-.4-.1-.9-.4-1.2-.3-.4-.5-.8-.8-1.2-.3-.4-.6-.8-.9-1.2-.2-.4-.4-.8-.4-1.2,0-.5.1-.9.3-1.4.2-.5.6-.9,1-1.2.5-.4,1-.6,1.6-.8.7-.2,1.4-.3,2.1-.3,1,0,1.9.2,2.8.6.7.3,1.1,1,1.1,1.7,0,.5-.2,1-.6,1.4-.4.3-.8.5-1.3.5-.5,0-.9-.1-1.3-.4.1-.2.2-.4.3-.7,0-.3.1-.5.1-.8,0-.5-.1-.9-.3-1.3-.2-.4-.7-.6-1.1-.6-.4,0-.8.2-1.1.5-.3.4-.4.8-.4,1.2,0,.5.2,1,.4,1.4.3.4.6.9,1,1.3.4.4.7.9,1,1.3.3.5.4,1,.4,1.5,0,.6-.1,1.2-.5,1.7-.4.5-.8.9-1.4,1.2h0c.9-.2,1.7-.6,2.5-1.1.8-.5,1.6-1.1,2.4-1.8.8-.7,1.5-1.4,2.1-2.2.6-.7,1.2-1.5,1.7-2.4v.2Z"/>
      <path class="st4" d="M232,226.1c-.5.7-1,1.3-1.5,2-.6.7-1.2,1.3-1.9,2-1.2,1.2-2.5,2.2-4,3-1.3.7-2.8,1-4.3,1-1.1,0-2.2-.3-3.1-.9-.7-.7-1.1-1.7-1.1-2.8,0-1.1.3-2.1.9-3,.6-.9,1.4-1.8,2.2-2.4.9-.7,1.9-1.3,2.9-1.7,1-.4,2-.6,3-.6.8,0,1.6.1,2.3.5.6.3,1,.9.9,1.5,0,.7-.4,1.4-1,1.8-.7.6-1.5,1-2.4,1.3-.9.4-1.8.7-2.8.9-.9.2-1.7.4-2.2.5,0,.2,0,.4,0,.6,0,.2,0,.4,0,.6,0,.4,0,.7.1,1.1,0,.3.2.6.4.9.2.3.4.5.7.6.4.2.8.3,1.1.2,1.1,0,2.1-.4,3-1,1.2-.8,2.2-1.6,3.2-2.6.6-.6,1.3-1.3,1.8-2,.5-.6,1-1.2,1.3-1.7l.3.2ZM225.5,223.9c0-.4-.2-.8-.6-.8,0,0-.1,0-.2,0-.5,0-1,.3-1.4.7-.5.5-1,1-1.4,1.6-.4.6-.8,1.2-1.1,1.9-.3.5-.5,1.1-.6,1.6,1.5-.3,2.8-1,3.9-2,.4-.4.8-.9,1.1-1.5.2-.5.4-1,.4-1.5h0Z"/>
      <g class="st8">
        <text class="st0" transform="translate(134 257.5)"><tspan x="0" y="0">E</tspan></text>
        <text class="st2" transform="translate(138.6 257.5)"><tspan x="0" y="0">S</tspan></text>
        <text class="st5" transform="translate(142.9 257.5)"><tspan x="0" y="0">T</tspan></text>
        <text class="st0" transform="translate(146.6 257.5)"><tspan x="0" y="0">. 2</tspan></text>
        <text class="st3" transform="translate(155 257.5)"><tspan x="0" y="0">0</tspan></text>
        <text class="st0" transform="translate(160 257.5)"><tspan x="0" y="0">18</tspan></text>
      </g>
    </g>
  </g>
</svg>